# xmcd CD database file generated by GCD 2.94
# 
# Track frame offsets:
#       150
#       16024
#       27941
#       40340
#       47192
#       59073
#       70285
#       83268
#       92969
#       107813
#       118598
#       139035
#       153318
#       173547
# 
# Disc length: 2449 seconds
# 
# Revision: 3
# Processed by: cddbd v1.4PL0 Copyright (c) Steve Scherf et al.
# Submitted via: GCD 2.94
# 
DISCID=b1098f0e
DTITLE=Town and Country Revue - Live At Mountainears
DYEAR=1900
DGENRE=
TTITLE0=Travelin' Prayer
TTITLE1=Hot Burrito Breakdown
TTITLE2=Never See My Home Again
TTITLE3=Aggravation
TTITLE4=She Sang Hymns Out Of Tune
TTITLE5=When The Storm is Over
TTITLE6=There is a Time
TTITLE7=Look Down that Lonesome Road
TTITLE8=Gentle on my mind
TTITLE9=Jubilee
TTITLE10=Utah Moon
TTITLE11=Charmaine
TTITLE12=Mr. Bojangles
TTITLE13=Dixie Breakdown
EXTD=
EXTT0=
EXTT1=
EXTT2=
EXTT3=
EXTT4=
EXTT5=
EXTT6=
EXTT7=
EXTT8=
EXTT9=
EXTT10=
EXTT11=
EXTT12=
EXTT13=
PLAYORDER=
